<svg width="2850" height="1800" viewBox="0 0 2850 1800" fill="none" xmlns="http://www.w3.org/2000/svg">
<g clip-path="url(#clip0_4_292)">
<path d="M2304.2 854.44C2217.98 885.69 2138.07 968.28 2079.19 974.98C2020.31 981.676 1986.66 896.855 1898.34 925.873C1810.02 954.891 1555.57 1106.67 1412.58 1113.37C1269.59 1120.07 827.98 823.193 731.25 800.873C650.719 782.29 416.99 872.394 340.95 903.103L340.936 902.516C305.694 916.223 269.911 928.55 233.696 939.459C195.969 950.824 154.909 960.574 117.816 947.308C72.6549 931.157 44.5229 884.843 0.755859 865.265V1396.86H2850.06V1113.49C2850.06 1113.49 2390.45 823.195 2304.23 854.445L2304.2 854.44Z" fill="#812E52"/>
<path d="M143.819 953.04C134.994 952.159 126.288 950.34 117.792 947.301C72.6314 931.15 44.4994 884.836 0.732422 865.258V897.753C44.5044 917.331 72.6354 963.645 117.792 979.796C126.289 982.835 273.202 992.847 282.022 993.728L143.819 953.04Z" fill="#B34070"/>
<path d="M1898.3 925.86C1809.98 954.878 1555.53 1106.66 1412.54 1113.36C1270.16 1120.03 831.75 825.74 732.49 801.18C732.49 801.18 1291.06 1197.92 1433.44 1191.25C1576.44 1184.55 1772.89 1027.23 1852.81 979.73C1875.93 965.991 1938.56 919.914 1938.56 919.914C1926.43 919.337 1913.14 920.988 1898.3 925.863L1898.3 925.86Z" fill="#B34070"/>
<path d="M2304.2 854.44C2222.37 884.099 2146.23 959.99 2088.35 973.37C2088.35 973.37 2182.6 952.491 2255.69 905.229C2273.59 893.654 2313.05 852.474 2313.05 852.474C2309.78 852.848 2306.82 853.493 2304.2 854.44H2304.2Z" fill="#B34070"/>
</g>
<defs>
<clipPath id="clip0_4_292">
<rect width="2850" height="1800" fill="white"/>
</clipPath>
</defs>
</svg>
