<svg width="2850" height="1800" viewBox="0 0 2850 1800" fill="none" xmlns="http://www.w3.org/2000/svg">
<g clip-path="url(#clip0_4_292)">
<path d="M0 1111.1C0 1111.1 42.955 1131.33 54.756 1175.16C66.556 1218.99 119.236 1400.74 119.236 1400.74L73.196 1510.3L276.646 1582.22L315.66 1690.9L572.21 1694.88L717.26 1800H0V1111.1Z" fill="#3F0021"/>
<path d="M2471.7 1125.3C2450.11 1106.48 2421.13 1097.56 2392.49 1097.32C2397.67 1088.69 2397.43 1077.09 2391.91 1068.68C2386.38 1060.26 2375.84 1055.44 2365.86 1056.75C2381.45 1045.54 2382.67 1021.18 2372.53 1004.87C2362.4 988.561 2344.05 979.156 2325.66 973.621C2302.91 966.77 2276.71 965.127 2256.77 978.05C2229.86 995.482 2224.04 1031.7 2220.75 1063.58C2201.8 1058.62 2179.99 1061.12 2165.29 1074.07C2150.59 1087.02 2145.93 1111.53 2158.16 1126.84C2109.74 1124.24 2058.17 1152.36 2043.83 1198.67C2038.25 1216.69 2038.88 1237.69 2050.19 1252.79C2059.29 1264.94 2074.16 1271.76 2089.17 1274.05C2104.17 1276.34 2146.91 1273.13 2161.94 1270.95C2161.94 1270.95 2186.11 1315.77 2274.67 1306.91C2346.63 1299.72 2358.62 1274.54 2358.62 1274.54C2358.62 1274.54 2427.73 1294.62 2462.96 1264.95C2479.14 1251.32 2539.72 1184.6 2471.7 1125.3H2471.7Z" fill="#3F0021"/>
<path d="M2390.9 1250.9C2385.78 1288.32 2380.66 1325.75 2375.54 1363.17C2374 1374.38 2372.37 1385.88 2366.87 1395.76C2361.61 1405.2 2353.21 1412.43 2344.99 1419.45C2327.71 1434.19 2310.44 1448.94 2293.17 1463.68C2283.53 1394.49 2284.79 1323.78 2297.43 1255.08L2279.85 1274.86C2275.74 1306.21 2271.63 1337.56 2267.52 1368.91C2266.68 1375.35 2265.84 1381.8 2265.09 1388.25C2263.83 1386.7 2261.51 1386.09 2259.45 1385.65C2244.9 1382.51 2230.94 1376.62 2218.54 1368.38C2216.4 1366.96 2214.22 1365.37 2213.06 1363.08C2211.99 1360.93 2211.94 1358.44 2211.92 1356.04C2211.55 1319.35 2211.18 1282.65 2210.81 1245.97L2183.63 1224.78C2189.16 1273.65 2191.57 1322.86 2190.84 1372.03C2190.79 1375.33 2190.77 1378.78 2192.27 1381.72C2193.9 1384.89 2197.05 1386.94 2200.11 1388.77C2219.29 1400.2 2240.32 1408.51 2262.13 1413.26C2262.49 1411.32 2262.84 1409.39 2263.19 1407.45C2262.54 1415.97 2262.19 1424.51 2262.35 1433.06C2262.85 1458.28 2267.77 1483.17 2271.89 1508.06C2279.47 1553.89 2284.37 1600.17 2286.53 1646.58C2306.28 1646.05 2326.02 1645.52 2345.76 1645C2324.2 1597.79 2308.47 1547.98 2298.7 1497.02C2321.49 1474.87 2344.29 1452.73 2367.08 1430.59C2372.6 1425.23 2378.23 1419.7 2381.49 1412.74C2384.38 1406.56 2385.2 1399.66 2385.99 1392.89C2392.18 1339.86 2398.37 1286.83 2404.56 1233.8L2390.9 1250.9Z" fill="#3F0021"/>
<path d="M2676.4 1359.2L2674.74 1437.15L2440.6 1572.69V1633.74L1705.8 1696.64C1705.8 1696.64 1693.02 1698.63 1672.07 1713.04L1545.64 1800.02H2850.04V1207.06L2676.4 1359.2Z" fill="#3F0021"/>
<path d="M1724.8 1694.8C1722.86 1686.08 1719.62 1677.65 1715.22 1669.88C1724.27 1674.71 1732.27 1681.49 1738.53 1689.61C1738.04 1668.64 1727.82 1649.17 1724.11 1628.52C1733.03 1636.29 1738.98 1647.02 1742.77 1658.22C1746.57 1669.43 1748.37 1681.2 1750.14 1692.9C1751.11 1679.89 1752.19 1666.5 1758.08 1654.87C1758.49 1666.07 1759.53 1677.25 1761.19 1688.34C1762.35 1679.62 1766.36 1671.31 1772.48 1664.99C1770.71 1677.62 1769.96 1690.39 1770.23 1703.14" fill="#3F0021"/>
<path d="M1826.1 1661.2L1814.53 1657.7C1813.62 1657.42 1812.67 1657.12 1812.02 1656.43C1811.5 1655.89 1811.23 1655.16 1810.97 1654.46C1809.54 1650.54 1808.1 1646.62 1806.67 1642.7C1809.85 1642.18 1812.94 1641.07 1815.72 1639.44C1812.14 1638.15 1807.1 1637.62 1803.52 1636.34C1803.52 1636.34 1779.22 1605.84 1767.29 1594.01C1776.36 1595.2 1785.31 1597.31 1793.96 1600.28C1796.67 1601.21 1806.75 1604.5 1806.75 1604.5C1806.75 1604.5 1804.49 1609.65 1803.14 1612.18L1809.68 1608.88C1810.38 1608.52 1812.08 1607.56 1812.08 1607.56C1812.08 1607.56 1813.71 1609.01 1814.42 1609.71C1822.84 1618.03 1828.91 1628.38 1834.87 1638.61C1836.47 1641.36 1838.12 1644.61 1836.93 1647.56C1838.68 1648.07 1840.59 1648.03 1842.32 1647.46C1845.39 1657.1 1846.94 1667.23 1846.88 1677.35C1841.58 1670.15 1834.3 1664.43 1826.05 1660.97" fill="#3F0021"/>
<path d="M1838.3 1664C1844.9 1676.45 1849.37 1689.7 1851.73 1703.59C1852.18 1706.25 1856.23 1705.12 1855.78 1702.47C1853.36 1688.24 1848.69 1674.63 1841.92 1661.88C1840.66 1659.49 1837.03 1661.61 1838.3 1664Z" fill="#3F0021"/>
<path d="M1843.8 1574.6C1841.16 1578.4 1838.59 1588.62 1837.59 1593.14C1839.15 1594.34 1840.61 1595.67 1841.95 1597.11C1839.95 1597.71 1837.84 1597.91 1835.77 1597.71C1835.53 1602.34 1835.29 1606.97 1835.05 1611.6C1834.93 1613.9 1835.04 1620.54 1835.04 1620.54C1835.04 1620.54 1838.29 1622.53 1840.6 1622.6C1839.08 1623.36 1837.57 1624.11 1836.06 1624.87C1838.62 1635.85 1842.83 1646.44 1848.51 1656.18C1852.88 1649.31 1856.97 1633.46 1856.97 1633.46L1858.66 1626.42L1853.75 1622.24H1859.55C1863.15 1606.35 1856.72 1584.52 1843.8 1574.6Z" fill="#3F0021"/>
<path d="M1847.5 1614C1846.41 1628.3 1844.88 1642.66 1845.14 1657.02C1845.39 1670.7 1847.49 1684.27 1851.14 1697.45C1851.86 1700.05 1855.91 1698.94 1855.19 1696.33C1851.45 1682.86 1849.41 1669.04 1849.32 1655.05C1849.22 1641.35 1850.65 1627.65 1851.7 1614C1851.9 1611.31 1847.71 1611.32 1847.5 1614Z" fill="#3F0021"/>
<path d="M1854.6 1696.1C1860.36 1667.99 1874.17 1637.8 1897.92 1620.46C1900.08 1618.88 1897.99 1615.24 1895.8 1616.83C1871.13 1634.85 1856.55 1665.69 1850.55 1694.98C1850.01 1697.62 1854.06 1698.75 1854.6 1696.1Z" fill="#3F0021"/>
<path d="M1903.6 1634.4C1909.38 1626.13 1914.46 1617.3 1919.44 1608.58C1913.31 1607.95 1907.18 1608.79 1901.29 1610.6C1900.58 1612.38 1899.77 1614.17 1900.66 1615.95C1899.86 1614.35 1899.51 1612.76 1898.84 1611.42C1893.89 1613.19 1889.14 1615.62 1884.76 1618.43C1879.93 1621.54 1875.39 1625.13 1871.73 1629.48C1870.85 1630.53 1870.04 1631.62 1869.27 1632.75C1870.2 1634.61 1871.74 1636.48 1872.67 1638.34C1870.73 1638.34 1868.79 1637.67 1866.85 1636.79C1865.95 1638.49 1865.13 1640.23 1864.48 1642.03C1861.61 1649.99 1858.79 1662.08 1859.09 1670.49L1859.79 1672.16C1867.11 1668.1 1874.47 1664.01 1881.07 1658.91C1881.32 1658.72 1881.55 1658.51 1881.8 1658.31C1881.07 1656.86 1880.13 1655.61 1881.07 1653.74C1881.07 1655.88 1882.53 1656.2 1883.96 1656.56C1890.4 1651.12 1895.93 1644.84 1900.93 1638.1C1898.83 1637.21 1897.46 1634.15 1895.06 1634.15C1897.91 1634.15 1900.75 1633.51 1903.6 1634.4Z" fill="#3F0021"/>
<path d="M520.239 1161.9C550.463 1166 579.431 1178.95 602.637 1198.75C609.711 1204.78 616.843 1213.47 614.186 1222.38C612.394 1228.39 606.716 1232.21 602.098 1236.45C597.48 1240.7 593.437 1247.27 596.108 1252.94C597.372 1255.63 599.896 1257.47 602.365 1259.12C627.158 1275.66 657.083 1285.13 677.69 1306.66C685.088 1314.39 691.128 1326.51 685.027 1335.3C682.699 1338.66 678.64 1341.64 679.273 1345.68C679.555 1347.48 680.776 1348.98 682.058 1350.27C689.111 1357.37 698.969 1360.78 707.468 1366.06C715.968 1371.35 723.801 1380.29 722.313 1390.19C721.57 1395.13 718.609 1399.41 715.677 1403.46C706.038 1416.75 695.68 1429.75 682.777 1439.91C669.874 1450.07 654.118 1457.27 637.698 1457.51C612.29 1457.87 589.943 1442.14 566.758 1431.74C564.323 1430.65 561.751 1429.59 559.087 1429.75C555.625 1429.96 552.658 1432.15 549.777 1434.09C540.065 1440.6 528.245 1445.01 516.73 1442.97C504.958 1440.88 495.454 1432.56 485.125 1426.53C482.595 1425.06 479.899 1423.68 476.979 1423.45C472.284 1423.09 467.946 1425.69 463.777 1427.88C426.761 1447.33 380.684 1438.44 343.367 1419.58C331.401 1413.54 319.248 1405.8 313.729 1393.58C306.761 1378.16 313.741 1357.88 328.727 1350.02C333.534 1347.49 338.987 1346.11 343.264 1342.77C347.54 1339.42 350.243 1333 347.163 1328.52C344.871 1325.2 339.789 1323.31 339.921 1319.27C339.975 1317.63 340.97 1316.18 341.964 1314.88C368.725 1279.62 416.885 1270.2 454.924 1247.56C456.492 1246.62 458.179 1245.49 458.607 1243.72C459.373 1240.54 455.852 1238.22 453.228 1236.27C441.924 1227.89 441.769 1209.98 449.377 1198.15C456.985 1186.31 470.084 1179.3 482.927 1173.55C495.409 1167.97 508.494 1163.03 522.156 1162.45" fill="#3F0021"/>
<path d="M422.931 1415.6C421.183 1432.59 437.241 1492.45 440.2 1494.35C456.922 1505.11 473.644 1515.87 490.367 1526.62C505.505 1521.2 517.081 1520.63 532.939 1517.96C542.238 1516.4 552.357 1514.97 558.967 1508.24C563.136 1504 565.28 1498.22 567.214 1492.6C575.203 1469.37 581.571 1445.58 586.259 1421.47L597.668 1444.07C592.494 1462.76 587.319 1481.45 582.146 1500.15C580.3 1506.82 578.376 1513.65 574.283 1519.23C564.941 1531.96 547.501 1534.68 532.259 1538.82C527.814 1540.02 523.241 1541.54 519.972 1544.78C517.444 1547.29 515.922 1550.61 514.476 1553.86C498.775 1589.16 477.785 1688.71 467.43 1725.93L406.051 1719.54C422.409 1680.46 457.596 1585.44 468.285 1544.44C468.393 1544.03 468.509 1543.61 468.623 1543.19C456.554 1534.98 444.486 1526.76 432.417 1518.54C430.014 1516.9 427.539 1515.19 426.011 1512.72C424.561 1510.37 424.106 1507.56 423.689 1504.83C419.038 1474.49 415.151 1444.04 412.034 1413.51C417.482 1414.55 417.482 1414.55 422.931 1415.6Z" fill="#3F0021"/>
<path d="M705.91 1691.1C687.613 1682.24 664.366 1684.76 648.382 1697.32C647.323 1683.72 635.624 1672.29 622.27 1669.52C608.917 1666.75 594.702 1671.71 584.356 1680.6C587.118 1665.54 577.494 1649.95 563.909 1642.88C550.325 1635.81 533.807 1636.18 519.182 1640.73C504.556 1645.27 491.447 1653.62 478.735 1662.17C474.18 1665.23 469.126 1671.06 472.56 1675.34L467.584 1673.68C465.454 1704.47 485.355 1733.78 511.679 1749.88C538.003 1765.99 569.717 1770.84 600.568 1771.63C630.462 1772.41 660.721 1769.64 689.089 1760.18C698.525 1757.04 707.897 1753.05 715.374 1746.49C722.85 1739.93 728.248 1730.42 727.888 1720.48C727.424 1707.63 717.481 1696.7 705.91 1691.1Z" fill="#3F0021"/>
<path d="M314.45 1641.7C324.589 1629.47 341.635 1622.41 356.93 1626.69C368.887 1630.03 378.08 1639.38 386.532 1648.47C384.546 1640.68 390.378 1632.28 398.051 1629.87C405.724 1627.45 414.335 1630.14 420.596 1635.19C426.857 1640.24 431.101 1647.36 434.53 1654.64C446.08 1667.82 442.915 1681.89 437.497 1698.56C432.08 1715.23 418.329 1728.73 401.893 1734.82C390.7 1738.96 378.485 1739.86 366.62 1739.27C357.821 1738.83 349.086 1737.45 340.567 1735.2C330.304 1732.49 319.872 1728.37 312.613 1720.56C304.202 1711.51 301.134 1698.64 300.813 1686.29C300.4 1670.41 304.31 1653.93 314.45 1641.7Z" fill="#3F0021"/>
</g>
<defs>
<clipPath id="clip0_4_292">
<rect width="2850" height="1800" fill="white"/>
</clipPath>
</defs>
</svg>
