<svg width="2850" height="1800" viewBox="0 0 2850 1800" fill="none" xmlns="http://www.w3.org/2000/svg">
<path d="M1106.9 737.47C1114.14 731.299 1123.07 724.705 1132.26 727.167C1137.34 728.529 1144.58 731.186 1149.54 737.479C1149.54 737.479 1162.96 727.479 1170.27 726.573C1177.58 725.667 1185.37 727.627 1190.84 732.553C1185.88 729.83 1179.7 730.949 1174.38 732.873C1164.52 736.434 1155.6 742.541 1148.71 750.439C1144.91 743.976 1140.58 737.052 1133.53 734.49C1124.68 731.273 1115.08 732.796 1106.9 737.47Z" fill="#812E52"/>
<path d="M1156.5 773.59C1163.74 767.419 1172.67 760.825 1181.85 763.287C1186.94 764.649 1194.18 767.306 1199.14 773.599C1199.14 773.599 1212.56 763.599 1219.87 762.693C1227.18 761.787 1234.97 763.747 1240.44 768.673C1235.48 765.95 1229.3 767.069 1223.98 768.993C1214.12 772.554 1205.2 778.661 1198.31 786.559C1194.51 780.096 1190.18 773.172 1183.13 770.61C1174.28 767.392 1164.68 768.915 1156.5 773.59Z" fill="#812E52"/>
<path d="M1396.6 875.92C1399.78 873.213 1403.69 870.32 1407.72 871.4C1409.95 871.997 1413.13 873.163 1415.31 875.924C1415.31 875.924 1421.19 871.537 1424.4 871.14C1427.61 870.743 1431.02 871.603 1433.42 873.764C1431.24 872.569 1428.54 873.061 1426.2 873.905C1421.88 875.467 1417.96 878.147 1414.94 881.611C1413.27 878.776 1411.37 875.738 1408.28 874.614C1404.4 873.201 1400.19 873.87 1396.6 875.92Z" fill="#812E52"/>
<path d="M1015 830.86C1011.66 806.304 1036.7 803.955 1041.66 810.248C1041.66 810.248 1057.97 794.693 1074.66 826.723C1056.64 813.644 1047.71 815.312 1040.82 823.209C1037.03 816.747 1027.01 812.71 1015 830.86Z" fill="#812E52"/>
<path d="M1325.4 761.78C1322.06 737.224 1347.27 738.525 1352.23 744.818C1352.23 744.818 1368.37 725.614 1385.06 757.643C1367.04 744.564 1358.11 746.232 1351.22 754.129C1347.43 747.666 1337.41 743.629 1325.4 761.78Z" fill="#812E52"/>
<path d="M1269.6 845.15C1269.19 829.679 1284.75 832.193 1287.4 836.435C1287.4 836.435 1298.73 825.605 1306.91 846.619C1296.61 837.28 1290.96 837.711 1286.15 842.148C1284.23 837.879 1278.28 834.695 1269.6 845.15Z" fill="#812E52"/>
<path d="M953.74 724.46C961.226 722.936 970.062 721.771 975.563 727.072C978.606 730.004 982.663 734.686 983.704 741.037C983.704 741.037 997.023 739.225 1002.51 741.428C1008 743.631 1012.71 748.035 1014.64 753.624C1012.21 749.781 1007.44 748.169 1002.95 747.452C994.638 746.125 985.994 746.949 978.083 749.822C977.925 743.804 977.57 737.254 973.614 732.715C968.644 727.013 961.305 724.353 953.74 724.46Z" fill="#812E52"/>
<path d="M1401.6 805.12C1405.08 801.298 1409.44 797.133 1414.57 797.832C1417.4 798.219 1421.49 799.156 1424.59 802.21C1424.59 802.21 1431.14 795.901 1435.02 794.913C1438.9 793.925 1443.23 794.45 1446.52 796.731C1443.66 795.602 1440.41 796.628 1437.67 798.029C1432.6 800.623 1428.2 804.525 1425.03 809.254C1422.54 806.029 1419.73 802.592 1415.75 801.693C1410.76 800.563 1405.69 802.041 1401.6 805.12Z" fill="#812E52"/>
<path d="M2278.7 669.78C2296.04 645.008 2329.23 594.359 2329.23 569.55C2329.23 535.964 2302 508.736 2268.42 508.736C2234.83 508.736 2207.6 535.963 2207.6 569.55C2207.6 594.363 2240.79 645.012 2258.13 669.78H2278.7Z" fill="#631F3D"/>
<path d="M2279.06 681.96H2257V696.319H2279.06V681.96Z" fill="#631F3D"/>
<path d="M2091.1 783.95C2103.15 766.735 2126.22 731.536 2126.22 714.292C2126.22 690.951 2107.29 672.029 2083.95 672.029C2060.61 672.029 2041.69 690.951 2041.69 714.292C2041.69 731.536 2064.75 766.735 2076.8 783.95H2091.1Z" fill="#812E52"/>
<path d="M2091.44 792.42H2076.1V802.399H2091.44V792.42Z" fill="#812E52"/>
</svg>
