<svg width="2850" height="1800" viewBox="0 0 2850 1800" fill="none" xmlns="http://www.w3.org/2000/svg">
<g clip-path="url(#clip0_4_292)">
<path d="M960.239 1800C889.817 1745.91 819.399 1662 748.969 1607.91C741.572 1602.23 734.009 1596.46 725.205 1593.38C716.567 1590.36 707.245 1590.11 698.098 1589.84C630.638 1587.89 563.248 1583.44 496.118 1576.5C464.086 1573.19 387.718 1560.95 387.718 1560.95C308.313 1432.32 215.118 1279.24 135.718 1150.61C115.433 1117.75 94.1511 1083.84 61.9291 1062.56C43.3251 1050.27 21.9321 1042.86 -0.00585938 1038.52V1800L960.239 1800Z" fill="#531331"/>
<path d="M2788.1 1062.6C2755.88 1083.88 2734.6 1117.8 2714.31 1150.66C2698.68 1175.98 2566.84 1428.57 2566.84 1428.57C2566.84 1428.57 2133.46 1590.41 2124.83 1593.43C2116.03 1596.51 2108.46 1602.28 2101.07 1607.96C2070.98 1631.07 2058.92 1640.51 2029.79 1668.93L2033.82 1800.04H2850.04V1038.56C2828.1 1042.91 2806.71 1050.31 2788.1 1062.6L2788.1 1062.6Z" fill="#531331"/>
<path d="M2055.4 1649.4C2051.34 1645.77 2045.7 1644.33 2040.26 1644.34C2034.82 1644.35 2029.47 1645.69 2024.2 1647.01C2032.93 1642.71 2042.3 1639.68 2051.91 1638.06C2045.94 1627.45 2033.96 1621.99 2022.76 1617.21C2035.87 1617.03 2049.01 1620.84 2059.98 1628.01C2057.94 1620.66 2054.81 1613.62 2050.72 1607.18C2061.94 1614.3 2071.38 1624.2 2077.95 1635.75" fill="#531331"/>
<path d="M2108.8 1608.5C2101.85 1607.99 2095.98 1601.26 2096.41 1594.31C2096.83 1587.36 2103.49 1581.4 2110.44 1581.74C2106.88 1573.48 2106.71 1563.24 2112.09 1556.03C2117.48 1548.82 2129.15 1546.42 2135.78 1552.5C2137.21 1540.51 2143.22 1529.12 2152.32 1521.18C2155.29 1518.59 2158.66 1516.31 2162.47 1515.28C2167 1514.06 2171.86 1514.69 2176.32 1516.16C2185.97 1519.32 2194.24 1526.48 2198.78 1535.57C2203.31 1544.66 2204.04 1555.57 2200.76 1565.18C2199.74 1568.19 2198.31 1571.1 2196.15 1573.42C2194.17 1575.54 2191.66 1577.07 2189.16 1578.53C2164.48 1592.95 2137.32 1603.1 2109.23 1608.4" fill="#531331"/>
<path d="M788.279 1656.6C788.027 1640.98 812.361 1591.27 809.73 1578.8C807.479 1568.13 803.494 1557.9 800.743 1547.35C795.427 1526.95 794.792 1505.67 794.187 1484.6C797.156 1484.07 800.125 1483.54 803.095 1483.02C798.857 1512.45 808.1 1543.56 827.724 1565.9C829.875 1554.21 836.264 1543.35 845.434 1535.8C850.218 1531.85 855.684 1528.81 860.545 1524.97C871.079 1516.63 878.52 1504.47 881.147 1491.3C883.691 1492.58 886.235 1493.85 888.779 1495.13C878.826 1509.14 873.642 1526.47 861.665 1538.79C856.826 1543.77 850.979 1547.8 846.866 1553.39C840.594 1561.92 811.695 1635.34 808.402 1662.28" fill="#531331"/>
<path d="M808.319 1496C797.823 1499.96 786.242 1500.99 775.212 1498.95C769.088 1497.82 762.985 1495.68 758.277 1491.6C753.569 1487.52 750.454 1481.27 751.281 1475.09C752.64 1464.94 763.822 1458.76 774.055 1458.4C764.414 1456.99 756.726 1449.26 752.305 1440.58C743.765 1423.8 746.545 1400.68 761.715 1389.54C770.994 1382.72 783.12 1381.2 794.632 1381.31C806.144 1381.42 817.728 1382.93 829.119 1381.26C827.331 1375 829.254 1367.82 833.933 1363.29C838.613 1358.75 845.849 1357.06 852.054 1359.05C851.987 1351.58 853.965 1344.1 857.716 1337.64C858.893 1335.61 860.323 1333.61 862.401 1332.52C864.396 1331.48 866.74 1331.42 868.99 1331.43C884.194 1331.52 899.377 1334.33 913.612 1339.67C918.324 1341.44 923.074 1343.58 926.498 1347.27C932.261 1353.48 933.118 1363.04 930.814 1371.2C928.511 1379.35 923.526 1386.44 918.628 1393.35C925.995 1392.52 933.647 1397.05 936.456 1403.91C939.265 1410.77 936.984 1419.37 931.145 1423.94C945.156 1432.17 958.842 1443.89 961.801 1459.87C965.299 1478.76 951.331 1498.08 933.171 1504.35C915.01 1510.62 894.374 1505.66 878.262 1495.2C861.586 1509.42 836.443 1512.8 816.601 1503.5C813.146 1501.88 809.436 1499.25 809.338 1495.44" fill="#531331"/>
<path d="M742.379 1594.4C751.779 1576.63 754.673 1555.5 750.401 1535.85C759.223 1542.09 764.652 1552.24 767.284 1562.72C769.916 1573.2 770.035 1584.12 770.139 1594.92C779.499 1586.8 787.299 1576.89 792.992 1565.88C793.54 1583.69 786.55 1601.6 774.09 1614.32C782.374 1612.62 790.807 1611.63 799.262 1611.39C791.961 1617.1 784.659 1622.8 777.358 1628.5L726.443 1625.79C733.635 1620.17 736.888 1610.53 736.43 1601.42C735.972 1592.31 732.238 1583.65 727.571 1575.81C734.763 1579.63 740.257 1586.53 742.379 1594.4Z" fill="#531331"/>
<path d="M838.07 1673.3C847.559 1663.11 860.721 1656.4 874.547 1654.73C868.46 1650.38 860.583 1649.13 853.129 1649.8C845.675 1650.46 838.502 1652.87 831.411 1655.26C834.593 1647.29 839.302 1639.93 845.208 1633.7C833.437 1637.39 823.31 1646.04 817.821 1657.09C817.051 1651.28 815.774 1645.54 814.008 1639.96C811.938 1646.03 809.869 1652.11 807.799 1658.18L821.161 1690.87C823.198 1684.89 828.765 1680.57 834.831 1678.79C840.898 1677.02 847.412 1677.49 853.604 1678.76C849.463 1674.92 843.7 1672.9 838.07 1673.3Z" fill="#531331"/>
<path d="M205.41 966.84C203.861 964.783 201.804 963.084 200.649 960.782C199.494 958.481 199.64 955.178 201.867 953.886C203.524 952.925 206.086 953.147 206.849 951.389C207.159 950.674 207.026 949.852 206.866 949.089C205.023 940.321 200.551 932.782 195.123 925.663C197.002 923.214 198.337 920.375 198.781 917.331C200.052 908.61 192.686 899.625 183.886 899.159C188.156 895.474 189.886 889.456 189.456 883.833C189.027 878.209 186.697 872.903 183.962 867.971C181.286 863.144 178.154 858.507 174.117 854.744C166.879 847.995 157.068 844.439 147.218 843.485C138.454 842.636 129.619 843.72 120.998 845.589C115.874 846.399 110.805 847.595 105.843 849.111C100.514 850.739 95.1718 852.795 90.9548 856.437C86.7378 860.079 83.7888 865.587 84.4618 871.118C76.0838 867.253 65.7708 870.518 58.9718 876.755C54.5998 880.766 51.2048 886.235 51.0748 892.166C51.0468 893.436 51.1778 894.691 51.4328 895.919C47.6568 896.692 43.6588 896.427 39.7928 896.871C35.0768 897.413 29.9048 899.655 28.5338 904.2C27.8498 906.468 28.2498 908.906 28.6868 911.235C30.1208 918.89 31.9238 926.565 35.3938 933.537C38.8638 940.51 44.1568 946.795 51.1488 950.227C61.9678 955.537 74.7378 953.33 86.7878 953.576C88.0538 953.602 89.3708 953.67 90.4808 954.279C91.9228 955.07 92.7488 956.615 93.5918 958.027C96.4338 962.79 100.605 967.081 105.955 968.542C111.425 970.035 117.189 968.394 122.839 967.908C124.223 967.789 125.658 967.747 126.956 968.241C129.044 969.035 130.375 971.032 131.717 972.817C143.638 988.666 165.194 994.205 185.02 993.692C191.377 993.528 198.155 992.679 203 988.561C209.115 983.362 210.237 973.254 205.41 966.84Z" fill="#531331"/>
<path d="M98.7998 1032.1C98.8728 1031.91 128.886 971.336 128.886 971.336C129.291 965.497 129.403 958.074 129.158 950.352C120.975 963.916 113.042 977.772 102.69 989.664C103.653 962.525 108.198 935.964 113.238 909.482C105.322 918.635 94.0308 950.375 78.4058 1022.93C74.5488 1040.84 60.5368 1077.99 54.2168 1095.19L81.1268 1089.68C85.6518 1070.1 91.5628 1050.84 98.7998 1032.1V1032.1Z" fill="#531331"/>
<path d="M96.6707 1094.8C101.319 1085.43 109.359 1077.79 118.953 1073.62C113.639 1071.79 107.702 1072.58 102.478 1074.65C97.2537 1076.73 92.6057 1080 88.0127 1083.24C88.5967 1076.82 90.4107 1070.51 93.3277 1064.76C85.6447 1069.94 80.2067 1078.34 78.6207 1087.47C76.8227 1083.45 74.6737 1079.59 72.2057 1075.95C72.0167 1080.76 71.8277 1085.58 71.6387 1090.4L88.2607 1111.07C88.4457 1106.33 91.5277 1102.02 95.5147 1099.45C99.5017 1096.87 104.293 1095.81 109.023 1095.4C105.221 1093.53 100.638 1093.3 96.6707 1094.8Z" fill="#531331"/>
<path d="M2145.5 1421C2138.22 1411.98 2126.46 1406.76 2114.89 1407.43C2119.47 1404.17 2123.7 1400.43 2127.49 1396.28C2128.77 1394.87 2130.07 1393.28 2130.24 1391.38C2130.5 1388.55 2128.22 1386.17 2126.04 1384.34C2107.25 1368.55 2081.88 1360.83 2057.48 1363.47C2059.15 1358.84 2057.25 1353.24 2053.28 1350.4C2051.27 1344.95 2047.12 1340.03 2042.13 1336.93C2033.36 1331.47 2022.69 1330.29 2012.41 1329.24C2008.67 1328.86 2004.83 1328.48 2001.19 1329.43C1997.11 1330.49 1993.63 1333.11 1990.4 1335.82C1982.96 1342.06 1976.16 1349.06 1970.15 1356.68C1967.48 1360.06 1964.91 1363.68 1963.89 1367.86C1962.87 1372.04 1963.71 1376.93 1966.99 1379.72C1969.89 1382.2 1974.98 1384.27 1973.77 1387.89C1973.42 1388.93 1972.57 1389.7 1971.75 1390.42C1961.19 1399.75 1950.63 1409.08 1940.07 1418.41C1934.8 1423.06 1929.26 1428.15 1927.57 1434.98C1925.88 1441.81 1930.22 1450.52 1937.25 1450.52C1930.58 1451.82 1924.17 1454.44 1918.5 1458.19C1916.75 1459.35 1915.02 1460.67 1914.01 1462.5C1912.99 1464.33 1912.79 1466.5 1912.8 1468.59C1912.83 1483.95 1923.47 1498.15 1937.39 1504.64C1951.3 1511.13 1967.81 1510.59 1982.3 1505.49C1996.78 1500.39 2009.44 1491.06 2020.6 1480.52C2021.55 1479.63 2022.6 1478.67 2023.89 1478.55C2025.67 1478.39 2027.13 1479.81 2028.49 1480.96C2034.38 1485.91 2043.27 1486.94 2050.14 1483.48C2057.01 1480.01 2061.47 1472.25 2061 1464.57C2073.72 1471.49 2089.03 1473 2103.2 1469.98C2117.36 1466.96 2130.4 1459.62 2141.28 1450.06C2145.66 1446.21 2149.93 1441.56 2150.68 1435.78C2151.37 1430.46 2148.87 1425.18 2145.5 1421Z" fill="#531331"/>
<path d="M2073.2 1558.1C2071.39 1554.71 2069.35 1551.38 2068.39 1547.66C2067.33 1543.6 2067.63 1539.33 2067.93 1535.15C2069.75 1510.32 2071.82 1485.5 2074.12 1460.71L2061.17 1455.1C2057.8 1477.59 2054.43 1500.07 2051.05 1522.56C2050.53 1522.37 2049.94 1522.33 2049.37 1522.3C2037.06 1521.63 2024.77 1520.66 2012.5 1519.39C2011.14 1519.25 2009.7 1519.08 2008.58 1518.28C2007.37 1517.41 2006.76 1515.95 2006.2 1514.57L1992.29 1480.23L1987.83 1480.43C1991.52 1496.89 1995.8 1513.23 2000.67 1529.38C2000.9 1530.14 2001.14 1530.92 2001.64 1531.53C2002.87 1533 2005.1 1532.96 2007.01 1532.83C2021.09 1531.85 2035.29 1532.85 2049.1 1535.76C2048.86 1537.63 2048.71 1539.51 2048.91 1541.38C2049.17 1543.81 2049.99 1546.14 2050.8 1548.44L2079.15 1628.45C2086.42 1627.65 2093.49 1625.11 2099.62 1621.12C2093.53 1606.17 2087.44 1591.22 2081.35 1576.27C2078.84 1570.12 2076.33 1563.96 2073.2 1558.1Z" fill="#531331"/>
</g>
<defs>
<clipPath id="clip0_4_292">
<rect width="2850" height="1800" fill="white"/>
</clipPath>
</defs>
</svg>
