<svg width="2850" height="1800" viewBox="0 0 2850 1800" fill="none" xmlns="http://www.w3.org/2000/svg">
<path d="M2850 1396.8H0V1799.95H2850V1396.8Z" fill="#FA798D"/>
<path opacity="0.5625" d="M1240.5 1622.4C1182.86 1643.78 1123.28 1659.9 1062.73 1670.5C1049.61 1672.8 1045.98 1689.8 1056.98 1697.3C1067.57 1704.51 1080.37 1709.21 1092.94 1711.99C1115.63 1717.02 1139.36 1717.55 1161.31 1725.18C1171.04 1728.56 1181.56 1735.1 1182.29 1745.37C1108.39 1773.84 1027.77 1778.71 951.506 1799.99L1763.36 1798.96C1760.11 1791.75 1752.44 1785.27 1745.02 1781.46C1673.1 1744.53 1579.92 1771.2 1509.85 1730.85C1550.77 1719.87 1591.69 1708.88 1632.6 1697.89C1641.72 1695.45 1652.77 1690.65 1652.87 1681.22C1652.98 1671.22 1640.83 1666.44 1631.03 1664.46C1564.13 1651 1496.55 1640.95 1428.62 1634.37C1472.49 1625.99 1516.36 1617.6 1560.24 1609.22C1569.17 1607.51 1580.67 1602.12 1578.48 1593.29C1576.8 1586.5 1568.2 1584.65 1561.24 1583.97C1514.39 1579.39 1468.15 1568.6 1424.12 1551.97C1441.02 1535.87 1470.65 1536.5 1490.86 1527.25C1500.04 1523.05 1497.1 1509.25 1486.99 1509.03C1452.16 1508.28 1417.33 1507.52 1382.5 1506.76C1375.4 1506.61 1365.77 1503.95 1367.17 1496.36C1367.76 1493.2 1370.15 1490.67 1373.18 1489.6C1397.18 1481.14 1421.19 1472.67 1445.19 1464.2C1448.96 1462.87 1451.56 1459.22 1451.19 1455.24C1450.77 1450.63 1446.82 1449.39 1443.3 1448.44C1427.92 1444.29 1412.54 1440.14 1397.16 1436C1397.38 1429.49 1403.06 1424.76 1407.29 1419.81C1412.49 1413.73 1415.46 1402.68 1404.61 1400.24C1403.24 1399.93 1401.83 1399.84 1400.42 1399.89C1375.7 1400.75 1375.41 1399.5 1382.94 1396.84H1319.1C1316.37 1399.54 1296.12 1399.01 1295.54 1401.82C1294.42 1407.31 1309.1 1416.6 1303.41 1418.05C1291.13 1421.19 1275.89 1424.44 1269.68 1427.38C1267.22 1428.55 1264.62 1429.85 1263.21 1432.18C1257.15 1442.3 1279 1449.69 1278.47 1461.47C1278.11 1469.46 1268.16 1472.66 1260.24 1473.77C1249.44 1475.28 1238.63 1476.79 1227.83 1478.3C1215.94 1479.96 1200.39 1485.69 1204.68 1499.26C1207.29 1507.51 1215.75 1512.2 1224.32 1511C1235.56 1509.44 1257.69 1518.26 1251.12 1531.51C1249.82 1534.13 1247.61 1536.21 1244.99 1537.51C1223.92 1547.93 1200.9 1554.4 1177.49 1556.5C1166.18 1557.51 1150.72 1562.04 1152.45 1573.26C1154.02 1583.37 1167.82 1584.58 1178.05 1584.51C1202.42 1584.36 1226.79 1592.03 1246.65 1606.18C1248.41 1607.44 1249.73 1609.27 1250.21 1611.38C1251.56 1617.29 1245.54 1620.53 1240.49 1622.4H1240.5Z" fill="white"/>
<path opacity="0.5625" d="M1477.7 1483.9C1464.23 1482.61 1450.66 1483.56 1437.17 1484.51H1437.05C1433.27 1484.71 1433.3 1490.37 1437.08 1490.63C1438.87 1490.76 1440.67 1490.81 1442.46 1490.84C1454.41 1491.06 1466.59 1490.58 1478.05 1487.37C1479.94 1486.84 1479.72 1484.09 1477.77 1483.9C1477.74 1483.9 1477.72 1483.89 1477.7 1483.89V1483.9Z" fill="white"/>
<path opacity="0.5625" d="M1443.1 1424C1442.98 1423.67 1442.59 1423.54 1442.25 1423.46C1434.3 1421.6 1428.43 1421.54 1420.58 1423.27C1417.44 1423.87 1414.09 1424.87 1413.32 1426.26C1413.17 1426.54 1413.05 1426.9 1413.23 1427.17C1413.38 1427.41 1413.71 1427.47 1414 1427.51C1422.34 1428.57 1431.02 1429.6 1438.99 1426.91C1440.3 1426.46 1441.6 1425.91 1442.64 1425C1442.93 1424.74 1443.23 1424.37 1443.1 1424Z" fill="white"/>
<path opacity="0.5625" d="M1626 1514.6C1623.17 1513.04 1619.21 1510.81 1615.98 1510.73C1600.57 1509.91 1584.97 1512.91 1570.96 1519.38C1570.28 1519.7 1569.49 1520.18 1569.51 1520.93C1569.53 1521.76 1570.49 1522.19 1571.29 1522.41C1583.88 1525.9 1597.03 1527.32 1610.08 1526.62C1616.06 1526.3 1622.39 1525.38 1626.98 1521.53C1627.98 1520.69 1628.94 1519.58 1628.93 1518.27C1628.92 1516.62 1627.44 1515.39 1626 1514.6Z" fill="white"/>
<path opacity="0.5625" d="M1700.9 1645.3C1700.65 1644.04 1699.56 1643.14 1698.49 1642.43C1692.5 1638.46 1685.13 1637.3 1677.98 1636.52C1655.57 1634.04 1620.74 1633.93 1598.35 1636.65H1598.6C1597.59 1636.76 1596.59 1636.86 1595.59 1637C1594.53 1637.14 1593.42 1637.34 1592.62 1638.05C1591.04 1639.44 1591.56 1642.2 1593.11 1643.62C1594.66 1645.04 1596.85 1645.47 1598.92 1645.83C1630.41 1651.28 1662.59 1652.71 1694.44 1650.06C1697.47 1649.81 1701.5 1648.29 1700.9 1645.31V1645.3Z" fill="white"/>
<path opacity="0.5625" d="M1240.2 1436.7C1238.2 1434.71 1237.49 1434.36 1235.79 1433.74C1226.19 1431.66 1216.18 1431.48 1206.52 1433.23C1204.66 1433.57 1202.6 1434.13 1201.66 1435.77C1200.65 1437.54 1201.48 1439.92 1203.03 1441.25C1204.58 1442.58 1206.66 1443.08 1208.67 1443.44C1218.7 1445.24 1229.21 1444.29 1238.77 1440.73C1239.85 1440.33 1241.1 1439.65 1241.13 1438.5C1241.15 1437.8 1240.69 1437.19 1240.2 1436.7Z" fill="white"/>
<path opacity="0.5625" d="M1125.2 1571.1L1125.19 1571.1C1125.08 1571.08 1124.97 1571.07 1124.85 1571.07C1102.18 1569.13 1080.36 1567.55 1058.09 1572.3C1056.43 1572.66 1054.62 1573.13 1053.64 1574.51C1052.25 1576.45 1053.28 1579.36 1055.19 1580.78C1057.11 1582.21 1059.61 1582.54 1061.98 1582.78C1081.55 1584.74 1101.41 1583.79 1120.7 1579.97C1123.48 1579.42 1126.62 1578.52 1127.81 1575.95C1128.71 1573.98 1126.99 1571.37 1125.2 1571.1H1125.2Z" fill="white"/>
<path opacity="0.5625" d="M1127 1631C1126.53 1630.29 1125.64 1630.02 1124.81 1629.84C1120.27 1628.84 1117.52 1629.43 1112.56 1629.32L1113.3 1629.35C1107.71 1629.08 1102.09 1629.53 1096.61 1630.7C1094.39 1631.17 1091.83 1632.08 1091.2 1634.27C1090.25 1637.52 1094.27 1639.94 1097.6 1640.58C1106.94 1642.38 1116.94 1640.43 1124.91 1635.26C1126.4 1634.29 1127.98 1632.47 1127 1631Z" fill="white"/>
<path opacity="0.5625" d="M962.5 1749.5C955.525 1750.31 947.855 1751.51 943.509 1757.16C942.963 1757.87 942.568 1758.72 942.568 1759.62C942.569 1762.17 945.317 1763.07 947.59 1763.42C959.469 1765.23 971.59 1763.9 983.476 1762.14C1011.43 1758 1039.03 1751.48 1065.88 1742.68C1066.45 1742.49 1066.89 1742.03 1067.04 1741.44C1067.35 1740.27 1066.41 1739.13 1065.19 1739.24C1036.77 1741.64 989.694 1746.33 962.502 1749.5H962.5Z" fill="white"/>
<path opacity="0.42" d="M739.471 1466.9H824.201" stroke="white" stroke-width="4" stroke-miterlimit="10" stroke-linecap="round"/>
<path opacity="0.42" d="M937.641 1466.9H1258.5" stroke="white" stroke-width="4" stroke-miterlimit="10" stroke-linecap="round"/>
<path opacity="0.42" d="M1404.3 1466.9H1517.3" stroke="white" stroke-width="4" stroke-miterlimit="10" stroke-linecap="round"/>
<path opacity="0.42" d="M1686.7 1466.9H1882.9" stroke="white" stroke-width="4" stroke-miterlimit="10" stroke-linecap="round"/>
<path opacity="0.42" d="M2094.1 1466.9H2217.5" stroke="white" stroke-width="4" stroke-miterlimit="10" stroke-linecap="round"/>
<path opacity="0.42" d="M2297.7 1466.9H2336.3" stroke="white" stroke-width="4" stroke-miterlimit="10" stroke-linecap="round"/>
<path opacity="0.42" d="M373.949 1466.9H412.539" stroke="white" stroke-width="4" stroke-miterlimit="10" stroke-linecap="round"/>
<path opacity="0.42" d="M500.17 1466.9H638.79" stroke="white" stroke-width="4" stroke-miterlimit="10" stroke-linecap="round"/>
<path opacity="0.42" d="M595.09 1504.7H722.23" stroke="white" stroke-width="4" stroke-miterlimit="10" stroke-linecap="round"/>
<path opacity="0.42" d="M980.01 1504.7H1009.7" stroke="white" stroke-width="4" stroke-miterlimit="10" stroke-linecap="round"/>
<path opacity="0.42" d="M1247.6 1504.7H1331.6" stroke="white" stroke-width="4" stroke-miterlimit="10" stroke-linecap="round"/>
<path opacity="0.42" d="M1071.8 1757.3H1101.5" stroke="white" stroke-width="4" stroke-miterlimit="10" stroke-linecap="round"/>
<path opacity="0.42" d="M1339.4 1757.3H1423.4" stroke="white" stroke-width="4" stroke-miterlimit="10" stroke-linecap="round"/>
<path opacity="0.42" d="M1499.5 1504.7H1535.1" stroke="white" stroke-width="4" stroke-miterlimit="10" stroke-linecap="round"/>
<path opacity="0.42" d="M1837.2 1504.7H1977.9" stroke="white" stroke-width="4" stroke-miterlimit="10" stroke-linecap="round"/>
<path opacity="0.42" d="M2155.8 1504.7H2190.4" stroke="white" stroke-width="4" stroke-miterlimit="10" stroke-linecap="round"/>
<path opacity="0.42" d="M710.699 1542.6H739.469" stroke="white" stroke-width="4" stroke-miterlimit="10" stroke-linecap="round"/>
<path opacity="0.42" d="M796.449 1542.6H890.249" stroke="white" stroke-width="4" stroke-miterlimit="10" stroke-linecap="round"/>
<path opacity="0.42" d="M1103.3 1542.6H1142.6" stroke="white" stroke-width="4" stroke-miterlimit="10" stroke-linecap="round"/>
<path opacity="0.42" d="M1458.1 1542.6H1590.9" stroke="white" stroke-width="4" stroke-miterlimit="10" stroke-linecap="round"/>
<path opacity="0.42" d="M1718.4 1542.6H1745.9" stroke="white" stroke-width="4" stroke-miterlimit="10" stroke-linecap="round"/>
<path opacity="0.42" d="M1943.7 1542.6H2012.1" stroke="white" stroke-width="4" stroke-miterlimit="10" stroke-linecap="round"/>
<path opacity="0.42" d="M739.471 1580.5H801.391" stroke="white" stroke-width="4" stroke-miterlimit="10" stroke-linecap="round"/>
<path opacity="0.42" d="M1576.4 1580.5H1662.2" stroke="white" stroke-width="4" stroke-miterlimit="10" stroke-linecap="round"/>
<path opacity="0.42" d="M1837.2 1580.5H1872.9" stroke="white" stroke-width="4" stroke-miterlimit="10" stroke-linecap="round"/>
<path opacity="0.42" d="M1430.3 1580.5H1466.1" stroke="white" stroke-width="4" stroke-miterlimit="10" stroke-linecap="round"/>
<path opacity="0.42" d="M1054.5 1580.5H1336.1" stroke="white" stroke-width="4" stroke-miterlimit="10" stroke-linecap="round"/>
<path opacity="0.42" d="M1040.6 1703.1H954.66" stroke="white" stroke-width="4" stroke-miterlimit="10" stroke-linecap="round"/>
<path opacity="0.42" d="M1186.6 1703.1H1150.8" stroke="white" stroke-width="4" stroke-miterlimit="10" stroke-linecap="round"/>
<path opacity="0.42" d="M1562.4 1703.1H1280.8" stroke="white" stroke-width="4" stroke-miterlimit="10" stroke-linecap="round"/>
<path opacity="0.42" d="M869.41 1618.4H1070.1" stroke="white" stroke-width="4" stroke-miterlimit="10" stroke-linecap="round"/>
<path opacity="0.42" d="M1130.2 1618.4H1197.1" stroke="white" stroke-width="4" stroke-miterlimit="10" stroke-linecap="round"/>
<path opacity="0.42" d="M1722.9 1618.4H1739.1" stroke="white" stroke-width="4" stroke-miterlimit="10" stroke-linecap="round"/>
<path opacity="0.42" d="M1293.9 1618.4H1602.4" stroke="white" stroke-width="4" stroke-miterlimit="10" stroke-linecap="round"/>
<path opacity="0.42" d="M1011.3 1656.2H1336.1" stroke="white" stroke-width="4" stroke-miterlimit="10" stroke-linecap="round"/>
<path opacity="0.42" d="M1390.2 1656.2H1458.1" stroke="white" stroke-width="4" stroke-miterlimit="10" stroke-linecap="round"/>
<path opacity="0.42" d="M1579.4 1656.2H1602.4" stroke="white" stroke-width="4" stroke-miterlimit="10" stroke-linecap="round"/>
</svg>
