<svg width="2850" height="1800" viewBox="0 0 2850 1800" fill="none" xmlns="http://www.w3.org/2000/svg">
<path d="M2493.3 1166.2C2479.44 1163.8 2465.29 1167.49 2451.93 1171.91C2344.72 1207.39 2248.5 1293.12 2136.05 1282.69C2023.1 1272.22 1922.82 1164.65 1813.53 1195.02C1773.17 1206.24 1736.15 1236.09 1694.57 1230.94C1680.52 1229.2 1667.31 1223.47 1653.64 1219.78C1584.98 1201.23 1514.41 1234.8 1449.47 1263.78C1384.52 1292.77 1307.37 1317.57 1244.81 1283.75C1225.99 1273.58 1208.55 1258.16 1187.19 1257.17C1163.82 1256.09 1139.76 1272.79 1118.39 1263.28C1107.56 1258.46 1100.55 1247.95 1094.37 1237.84C1071.61 1200.61 1051.54 1160.94 1020.77 1130C989.995 1099.06 945.094 1077.77 902.768 1088.42C876.043 1095.15 850.388 1114.05 823.613 1107.53C806.204 1103.29 793.247 1089.13 781.411 1075.68C749.016 1038.86 716.621 1002.04 684.226 965.22C675.738 955.573 666.764 945.579 654.766 940.98C640.26 935.42 623.986 938.729 609.026 942.918C527.575 965.728 455.106 1012.11 378.466 1047.9C301.826 1083.68 214.706 1109.23 133.126 1086.88C77.0623 1071.51 41.1732 1031.45 0.75625 989.668L0.03125 1167.28C0.03125 1240.37 29.3903 1295.12 80.4762 1333.67C118.692 1362.5 171.215 1359.62 218.996 1356.64C495.286 1339.44 772.256 1363.18 1049.01 1369.63C1250.81 1374.33 1452.69 1369.84 1654.5 1365.34C1880.96 1360.3 2107.41 1355.26 2333.86 1350.22C2377.3 1349.25 2795.13 1361.69 2835.27 1345.04C2875.41 1328.38 2686.14 1271.89 2646.39 1231.39C2624.97 1209.56 2523.43 1171.42 2493.3 1166.21L2493.3 1166.2Z" fill="#75294A"/>
</svg>
